<?xml version="1.0" encoding="utf-8"?>
<!-- Generator: Adobe Illustrator 24.1.0, SVG Export Plug-In . SVG Version: 6.00 Build 0)  -->
<svg version="1.1" id="b2e19d48-5b81-490c-b13d-af9fe0de7907"
	 xmlns="http://www.w3.org/2000/svg" xmlns:xlink="http://www.w3.org/1999/xlink" x="0px" y="0px" viewBox="0 0 283 170"
	 style="enable-background:new 0 0 283 170;" xml:space="preserve">
<style type="text/css">
	.st0{fill:#FFFFFF;}
	.st1{fill:#FFB70A;}
	.st2{opacity:0.5;}
	.st3{opacity:0.5;fill:#FFB70A;enable-background:new    ;}
	.st4{fill:#E88D0B;}
	.st5{fill:#5E6981;}
	.st6{fill:#E87474;}
	.st7{fill:#71B429;}
	.st8{fill:#D65D5D;}
	.st9{fill:#55990B;}
	.st10{fill:#C2BFBF;}
	.st11{fill:#008B2A;}
	.st12{fill:#00AE42;}
</style>
<path d="M13.6,114.9c0,0.6-0.2,1.2-0.7,1.6c-0.6,0.4-1.3,0.6-2,0.6h-0.8v2.7H9.3v-6.8H11C12.7,112.9,13.6,113.6,13.6,114.9z
	 M10.1,116.4h0.7c0.5,0,1.1-0.1,1.5-0.4c0.3-0.3,0.5-0.7,0.5-1.1c0-0.4-0.1-0.8-0.4-1c-0.4-0.3-0.9-0.4-1.4-0.3h-0.9L10.1,116.4z"/>
<path d="M17,114.5c0.2,0,0.4,0,0.6,0.1l-0.1,0.7c-0.2,0-0.4-0.1-0.5-0.1c-0.4,0-0.8,0.2-1.1,0.5c-0.3,0.4-0.5,0.8-0.4,1.3v2.7h-0.8
	v-5.1h0.6l0.1,1l0,0c0.2-0.3,0.4-0.6,0.7-0.8C16.3,114.6,16.7,114.5,17,114.5z"/>
<path d="M18.3,113.2c0-0.1,0-0.3,0.1-0.4c0.2-0.2,0.5-0.2,0.6,0c0.2,0.2,0.2,0.6,0,0.8c-0.1,0.1-0.2,0.1-0.3,0.1
	c-0.1,0-0.2,0-0.3-0.1C18.3,113.5,18.3,113.4,18.3,113.2z M19.1,119.7h-0.8v-5.1h0.8V119.7z"/>
<path d="M27,119.7v-3.3c0.1-0.4,0-0.7-0.3-1c-0.2-0.2-0.5-0.3-0.8-0.3c-0.4,0-0.8,0.1-1.1,0.4c-0.3,0.4-0.4,0.8-0.3,1.3v2.9h-0.8
	v-3.2c0-0.4,0-0.7-0.2-1c-0.2-0.2-0.5-0.3-0.8-0.3c-0.4,0-0.8,0.1-1.1,0.4c-0.3,0.4-0.4,0.9-0.3,1.4v2.7h-0.8v-5.1h0.6l0.1,0.7l0,0
	c0.1-0.3,0.4-0.5,0.6-0.6c0.3-0.1,0.6-0.2,0.9-0.2c0.7-0.1,1.3,0.3,1.5,0.9l0,0c0.2-0.3,0.4-0.5,0.7-0.6c0.3-0.2,0.6-0.2,1-0.2
	c0.5,0,0.9,0.1,1.3,0.4c0.4,0.4,0.6,0.9,0.5,1.5v3.3L27,119.7z"/>
<path d="M32.3,119.7l-0.2-0.7l0,0c-0.2,0.3-0.5,0.5-0.8,0.7c-0.3,0.1-0.6,0.2-1,0.2c-0.4,0-0.8-0.1-1.2-0.4
	c-0.3-0.3-0.5-0.7-0.5-1.1c0-1,0.8-1.6,2.5-1.6h0.9v-0.4c0-0.3-0.1-0.6-0.2-0.9c-0.2-0.2-0.5-0.3-0.8-0.3c-0.5,0-1,0.2-1.4,0.4
	l-0.2-0.6c0.5-0.3,1.1-0.4,1.7-0.4c0.5,0,1,0.1,1.3,0.4c0.3,0.4,0.5,0.8,0.4,1.3v3.5L32.3,119.7z M30.6,119.2c0.4,0,0.8-0.1,1.1-0.4
	c0.3-0.3,0.4-0.7,0.4-1.1v-0.4h-0.8c-0.5,0-0.9,0.1-1.3,0.3c-0.3,0.2-0.4,0.5-0.4,0.8c0,0.2,0.1,0.5,0.2,0.6
	C30.1,119.1,30.3,119.2,30.6,119.2z"/>
<path d="M36.6,114.5c0.2,0,0.4,0,0.6,0.1l-0.1,0.7c-0.2,0-0.4-0.1-0.6-0.1c-0.4,0-0.8,0.2-1.1,0.5c-0.3,0.4-0.4,0.8-0.4,1.3v2.7
	h-0.8v-5.1H35l0.1,1l0,0c0.2-0.3,0.4-0.6,0.7-0.8C36,114.7,36.3,114.6,36.6,114.5z"/>
<path d="M37.2,114.6H38l1.1,2.8c0.2,0.5,0.3,0.9,0.5,1.4l0,0c0.1-0.3,0.1-0.6,0.2-0.8c0.1-0.4,0.5-1.6,1.2-3.5h0.8l-2.2,5.8
	c-0.2,0.5-0.4,0.9-0.8,1.2c-0.3,0.3-0.7,0.4-1.1,0.4c-0.2,0-0.5,0-0.7-0.1v-0.6c0.2,0,0.4,0.1,0.6,0.1c0.5,0,1-0.3,1.2-0.8l0.3-0.7
	L37.2,114.6z"/>
<path class="st0" d="M80.2,55.2h46.2c1.6,0,2.8,1.3,2.9,2.8v46.3c0,1.6-1.3,2.9-2.8,2.9H80.2c-1.6,0-2.8-1.3-2.8-2.9l0,0V58
	C77.4,56.4,78.7,55.2,80.2,55.2z"/>
<path class="st1" d="M126.4,107.8H80.2c-1.9,0-3.4-1.5-3.4-3.4c0,0,0,0,0,0l0,0V58c0-1.9,1.5-3.4,3.4-3.4c0,0,0,0,0,0h46.2
	c1.9,0,3.4,1.5,3.4,3.4v46.3C129.8,106.2,128.3,107.8,126.4,107.8C126.4,107.8,126.4,107.8,126.4,107.8L126.4,107.8z M80.2,55.7
	c-1.3,0-2.3,1-2.3,2.3v46.3c0,1.3,1,2.3,2.3,2.3h46.2c1.3,0,2.3-1,2.3-2.3V58c0-1.3-1-2.3-2.3-2.3L80.2,55.7z"/>
<path class="st0" d="M156.4,55.2h46.2c1.6,0,2.8,1.3,2.9,2.8l0,0v46.3c0,1.6-1.3,2.8-2.8,2.9h-46.2c-1.6,0-2.9-1.3-2.9-2.9V58.1
	C153.6,56.5,154.9,55.2,156.4,55.2z"/>
<path class="st1" d="M202.6,107.8h-46.2c-1.9,0-3.4-1.5-3.4-3.4V58.1c0-1.9,1.5-3.4,3.4-3.4h46.2c1.9,0,3.4,1.5,3.4,3.4l0,0v46.3
	C206,106.3,204.5,107.8,202.6,107.8C202.6,107.8,202.6,107.8,202.6,107.8L202.6,107.8z M156.4,55.7c-1.3,0-2.3,1-2.3,2.3v46.3
	c0,1.3,1,2.3,2.3,2.3h46.2c1.3,0,2.3-1,2.3-2.3c0,0,0,0,0,0l0,0V58.1c0-1.3-1-2.3-2.3-2.3c0,0,0,0,0,0H156.4z"/>
<g class="st2">
	<path class="st1" d="M279.6,107.8h-3.3v-1.1h3.2L279.6,107.8z M273.6,107.8h-3.2v-1.1h3.3L273.6,107.8z M267.6,107.8h-3.3v-1.1h3.3
		V107.8z M261.6,107.8h-3.2v-1.1h3.2V107.8z M255.6,107.8h-3.2v-1.1h3.2V107.8z M249.6,107.8h-3.2v-1.1h3.2V107.8z M243.6,107.8
		h-3.2v-1.1h3.2L243.6,107.8z M237.6,107.8h-3.2v-1.1h3.2V107.8z M231.4,107.3c-1.1-0.6-1.7-1.7-1.7-2.9v-0.3h1.1v0.3
		c0,0.8,0.4,1.6,1.1,2L231.4,107.3z M282.1,106.4l-0.9-0.6c0.3-0.4,0.4-0.9,0.4-1.3v-1.5h1.4v1.5c0,0.7-0.2,1.4-0.6,1.9L282.1,106.4
		z M230.9,101.4H230v-3.3h1.1L230.9,101.4z M283,100.2h-1.1v-3.2h1.1V100.2z M231.1,95.4H230v-3.3h1.1L231.1,95.4z M283,94.2h-1.1
		v-3.2h1.1V94.2z M231.1,89.4H230v-3.2h1.1L231.1,89.4z M283,88.1h-1.1v-3.2h1.1V88.1z M231.1,83.4H230v-3.2h1.1L231.1,83.4z
		 M283,82.1h-1.1v-3.2h1.1V82.1z M231.1,77.4H230v-3.2h1.1L231.1,77.4z M283,76.1h-1.1v-3.2h1.1V76.1z M231.1,71.3H230v-3.1h1.1
		L231.1,71.3z M283,70.2h-1.1V67h1.1V70.2z M231.1,65.5H230v-3.2h1.1L231.1,65.5z M283,64.2h-1.1V61h1.1V64.2z M231.1,59.5H230V58
		c0-0.7,0.2-1.4,0.6-2l0.9,0.6c-0.3,0.4-0.4,0.9-0.4,1.3L231.1,59.5z M283,58.2h-1.1V58c0-0.8-0.5-1.6-1.2-2l0.5-1
		c1.1,0.6,1.7,1.8,1.7,3V58.2z M278.4,55.6h-3.2v-1h3.2L278.4,55.6z M272.4,55.6h-3.2v-1h3.2V55.6z M266.4,55.6h-3.2v-1h3.2
		L266.4,55.6z M260.4,55.6h-3.2v-1h3.3L260.4,55.6z M254.4,55.6h-3.2v-1h3.3L254.4,55.6z M248.4,55.6h-3.2v-1h3.3L248.4,55.6z
		 M242.4,55.6h-3.2v-1h3.2V55.6z M236.4,55.6h-3.2v-1h3.2V55.6z"/>
</g>
<rect x="179.4" y="134.1" class="st1" width="1.1" height="20.3"/>
<rect x="103.6" y="130.8" class="st1" width="1.1" height="23.6"/>
<polygon class="st1" points="180,130.6 177.5,135.7 182.4,135.7 "/>
<rect x="26.7" y="134.1" class="st1" width="1.1" height="20.3"/>
<polygon class="st1" points="27.2,130.6 24.8,135.7 29.7,135.7 "/>
<polygon class="st3" points="257.3,130.6 254.8,135.7 259.7,135.7 "/>
<rect x="103.6" y="154.3" class="st1" width="77" height="1.1"/>
<rect x="26.7" y="154.3" class="st1" width="77" height="1.1"/>
<g class="st2">
	<rect x="256.4" y="136.8" class="st1" width="1.1" height="1.6"/>
	<path class="st1" d="M257.5,150.5h-1.1v-3.3h1.1V150.5z M257.5,144.5h-1.1v-3.3h1.1V144.5z"/>
	<polygon class="st1" points="257.5,155.4 255.4,155.4 255.4,154.3 256.4,154.3 256.4,153.2 257.5,153.2 	"/>
	<path class="st1" d="M252.5,155.4h-3.4v-1.1h3.4V155.4z M246.3,155.4h-3.4v-1.1h3.4L246.3,155.4z M240,155.4h-3.4v-1.1h3.4
		L240,155.4z M233.8,155.4h-3.4v-1.1h3.4V155.4z M227.5,155.4h-3.4v-1.1h3.4V155.4z M221.3,155.4h-3.4v-1.1h3.4V155.4z M215,155.4
		h-3.4v-1.1h3.4V155.4z M208.8,155.4h-3.4v-1.1h3.4L208.8,155.4z M202.6,155.4h-3.4v-1.1h3.4V155.4z M196.3,155.4h-3.4v-1.1h3.4
		V155.4z M190.1,155.4h-3.4v-1.1h3.4V155.4z"/>
	<rect x="182.2" y="154.3" class="st1" width="1.6" height="1.1"/>
</g>
<path class="st4" d="M117.4,168.1v-6.8h3c0.5,0,0.9,0,1.4,0.2c0.3,0.1,0.6,0.4,0.8,0.7c0.2,0.3,0.3,0.6,0.3,1c0,0.5-0.2,0.9-0.5,1.2
	c-0.4,0.4-0.9,0.6-1.4,0.6c0.2,0.1,0.4,0.2,0.5,0.4c0.3,0.3,0.5,0.6,0.8,0.9l1.2,1.9h-1.1l-1-1.4c-0.2-0.4-0.5-0.7-0.6-1
	c-0.1-0.2-0.3-0.3-0.5-0.4c-0.1-0.1-0.3-0.2-0.4-0.2c-0.2,0-0.3,0-0.5,0h-1v3L117.4,168.1z M118.4,164.2h1.9c0.3,0,0.7,0,1-0.1
	c0.2-0.1,0.4-0.2,0.5-0.4c0.1-0.2,0.2-0.4,0.2-0.6c0-0.3-0.1-0.6-0.3-0.8c-0.3-0.2-0.7-0.3-1.1-0.3h-2.2L118.4,164.2z"/>
<path class="st4" d="M127.5,166.5l0.9,0.1c-0.1,0.5-0.4,0.9-0.8,1.2c-1,0.6-2.3,0.5-3.1-0.2c-0.4-0.5-0.7-1.2-0.6-1.9
	c0-0.7,0.2-1.4,0.6-1.9c0.4-0.5,1-0.7,1.7-0.7c0.6,0,1.2,0.2,1.6,0.7c0.4,0.5,0.7,1.2,0.6,1.9v0.2h-3.7c0,0.5,0.2,0.9,0.5,1.2
	c0.3,0.3,0.6,0.4,1,0.4c0.3,0,0.6-0.1,0.8-0.2C127.3,167,127.4,166.8,127.5,166.5z M124.8,165.1h2.8c0-0.3-0.1-0.7-0.3-0.9
	c-0.5-0.6-1.4-0.6-1.9-0.2l-0.1,0.1C125,164.3,124.8,164.7,124.8,165.1z"/>
<path class="st4" d="M129.4,169.9v-6.8h0.8v0.6c0.2-0.2,0.4-0.4,0.6-0.6c0.3-0.1,0.5-0.2,0.8-0.2c0.4,0,0.8,0.1,1.1,0.3
	c0.3,0.2,0.6,0.6,0.7,1c0.3,0.9,0.3,1.8,0,2.7c-0.1,0.4-0.4,0.8-0.8,1c-0.3,0.2-0.7,0.3-1.1,0.3c-0.3,0-0.5-0.1-0.8-0.2
	c-0.2-0.1-0.4-0.3-0.5-0.4v2.3L129.4,169.9z M130.2,165.6c0,0.5,0.1,1,0.4,1.4c0.2,0.3,0.6,0.5,0.9,0.4c0.4,0,0.7-0.2,0.9-0.5
	c0.3-0.4,0.4-0.9,0.4-1.5c0-0.5-0.1-1-0.4-1.4c-0.2-0.3-0.6-0.5-1-0.5c-0.4,0-0.8,0.2-1,0.5C130.2,164.6,130.1,165.1,130.2,165.6
	L130.2,165.6z"/>
<path class="st4" d="M134.7,168.1v-6.8h0.8v6.8H134.7z"/>
<path class="st4" d="M136.8,162.2v-0.9h0.8v0.9H136.8z M136.8,168.1v-5h0.8v5H136.8z"/>
<path class="st4" d="M142.1,166.2l0.8,0.1c-0.1,0.5-0.3,1-0.7,1.3c-0.4,0.3-0.9,0.5-1.4,0.5c-0.6,0-1.2-0.2-1.6-0.7
	c-0.4-0.5-0.6-1.2-0.6-1.9c0-0.5,0.1-1,0.3-1.4c0.2-0.4,0.4-0.7,0.8-0.9c0.4-0.2,0.8-0.3,1.2-0.3c0.5,0,0.9,0.1,1.3,0.4
	c0.3,0.3,0.6,0.7,0.6,1.2l-0.8,0.1c-0.1-0.3-0.2-0.6-0.4-0.8c-0.2-0.2-0.5-0.2-0.7-0.2c-0.4,0-0.8,0.1-1,0.4
	c-0.3,0.4-0.4,0.9-0.4,1.4c0,0.5,0.1,1,0.4,1.4c0.2,0.3,0.6,0.5,1,0.4c0.3,0,0.6-0.1,0.8-0.3C142,166.9,142.1,166.6,142.1,166.2z"/>
<path class="st4" d="M146.9,167.4c-0.3,0.2-0.6,0.4-0.9,0.6c-0.3,0.1-0.6,0.2-0.9,0.2c-0.4,0-0.9-0.1-1.2-0.4
	c-0.5-0.4-0.6-1.1-0.3-1.6c0.1-0.2,0.2-0.4,0.4-0.5c0.2-0.1,0.4-0.2,0.6-0.3c0.2,0,0.5-0.1,0.7-0.1c0.5,0,1-0.1,1.5-0.3v-0.2
	c0-0.3-0.1-0.5-0.2-0.7c-0.3-0.2-0.6-0.3-0.9-0.3c-0.3,0-0.6,0.1-0.9,0.2c-0.2,0.2-0.4,0.5-0.4,0.7l-0.8-0.1
	c0.1-0.3,0.2-0.6,0.4-0.8c0.2-0.2,0.5-0.4,0.7-0.5c0.4-0.1,0.7-0.2,1.1-0.2c0.3,0,0.7,0,1,0.1c0.2,0.1,0.4,0.2,0.6,0.4
	c0.1,0.2,0.2,0.4,0.3,0.6c0,0.3,0,0.5,0,0.8v1.1c0,0.5,0,1,0,1.5c0,0.2,0.1,0.4,0.2,0.6H147C146.9,167.9,146.9,167.7,146.9,167.4z
	 M146.8,165.5c-0.4,0.2-0.9,0.3-1.4,0.3c-0.2,0-0.5,0.1-0.7,0.2c-0.1,0.1-0.2,0.2-0.3,0.3c-0.2,0.3-0.2,0.7,0.1,1c0,0,0,0,0,0
	c0.2,0.2,0.5,0.2,0.7,0.2c0.3,0,0.6-0.1,0.9-0.2c0.2-0.1,0.4-0.3,0.6-0.6c0.1-0.3,0.2-0.6,0.1-0.8L146.8,165.5z"/>
<path class="st4" d="M150.8,167.3l0.1,0.8c-0.2,0-0.4,0.1-0.6,0.1c-0.2,0-0.5,0-0.7-0.1c-0.2-0.1-0.3-0.2-0.4-0.4
	c-0.1-0.3-0.1-0.7-0.1-1v-2.9h-0.6v-0.7h0.6v-1.2l0.8-0.5v1.7h0.8v0.7h-0.9v2.9c0,0.1,0,0.3,0,0.4c0,0.1,0.1,0.1,0.1,0.2
	c0.1,0,0.2,0.1,0.3,0.1C150.5,167.3,150.6,167.3,150.8,167.3z"/>
<path class="st4" d="M151.6,162.2v-0.9h0.8v0.9H151.6z M151.6,168.1v-5h0.8v5H151.6z"/>
<path class="st4" d="M153.4,165.6c0-0.7,0.2-1.5,0.8-2c0.4-0.4,1-0.6,1.6-0.5c0.6,0,1.2,0.2,1.7,0.7c0.4,0.5,0.7,1.2,0.6,1.8
	c0,0.5-0.1,1-0.3,1.5c-0.2,0.4-0.5,0.7-0.8,0.9c-0.4,0.2-0.8,0.3-1.2,0.3c-0.6,0-1.2-0.2-1.7-0.7C153.6,167,153.3,166.3,153.4,165.6
	z M154.2,165.6c0,0.5,0.1,1,0.4,1.4c0.5,0.6,1.4,0.7,2,0.2c0,0,0,0,0,0l0,0l0.1-0.1c0.3-0.4,0.5-0.9,0.4-1.4c0-0.5-0.1-1-0.4-1.4
	c-0.2-0.3-0.6-0.5-1-0.5c-0.4,0-0.8,0.2-1,0.5c-0.3,0.4-0.4,0.9-0.4,1.4L154.2,165.6z"/>
<path class="st4" d="M159,168.1v-5h0.8v0.7c0.3-0.5,0.9-0.8,1.6-0.8c0.3,0,0.6,0.1,0.8,0.1c0.2,0.1,0.4,0.2,0.6,0.4
	c0.1,0.2,0.2,0.4,0.3,0.6c0,0.3,0,0.5,0,0.8v3h-0.8v-3c0-0.3,0-0.5-0.1-0.8c-0.1-0.2-0.2-0.3-0.3-0.4c-0.2-0.1-0.4-0.2-0.6-0.2
	c-0.4,0-0.7,0.1-1,0.4c-0.3,0.4-0.4,0.8-0.4,1.3v2.7L159,168.1z"/>
<circle class="st5" cx="222.1" cy="81.2" r="1.4"/>
<circle class="st5" cx="217.7" cy="81.2" r="1.4"/>
<circle class="st5" cx="213.3" cy="81.2" r="1.4"/>
<path class="st0" d="M3.4,55.2h46.2c1.6,0,2.8,1.3,2.8,2.8v46.3c0,1.6-1.3,2.9-2.8,2.9H3.4c-1.6,0-2.8-1.3-2.8-2.8l0,0V58
	C0.6,56.4,1.8,55.2,3.4,55.2z"/>
<path class="st1" d="M49.6,107.8H3.4c-1.9,0-3.4-1.5-3.4-3.4l0,0V58c0-1.9,1.5-3.4,3.4-3.4h46.2c1.9,0,3.4,1.5,3.4,3.4c0,0,0,0,0,0
	v46.4C53,106.3,51.5,107.8,49.6,107.8C49.6,107.8,49.6,107.8,49.6,107.8L49.6,107.8z M3.4,55.7c-1.3,0-2.3,1-2.3,2.3v46.3
	c0,1.3,1,2.3,2.3,2.3c0,0,0,0,0,0h46.2c1.3,0,2.3-1,2.3-2.3c0,0,0,0,0,0l0,0V58c0-1.3-1-2.3-2.3-2.3c0,0,0,0,0,0L3.4,55.7L3.4,55.7z
	"/>
<rect x="22.5" y="19.9" class="st6" width="153.3" height="1.1"/>
<rect x="99.2" class="st6" width="1.1" height="20.3"/>
<rect x="175.1" class="st6" width="1.1" height="20.9"/>
<polygon class="st7" points="179.8,0 177.4,5.1 182.3,5.1 "/>
<rect x="103.4" y="3.5" class="st7" width="1.1" height="20.3"/>
<rect x="26.7" y="23.8" class="st7" width="1.1" height="20.3"/>
<rect x="103.4" y="23.8" class="st7" width="1.1" height="20.3"/>
<rect x="179.4" y="3.5" class="st7" width="1.1" height="20.3"/>
<rect x="179.4" y="23.8" class="st7" width="1.1" height="20.3"/>
<rect x="27.7" y="23.8" class="st7" width="151.9" height="1.1"/>
<rect x="21.9" y="19.9" class="st6" width="1.1" height="20.3"/>
<polygon class="st7" points="104,0 101.5,5.1 106.4,5.1 "/>
<polygon class="st6" points="22.5,44.2 20,39.1 24.9,39.1 "/>
<g class="st2">
	<rect x="256.4" y="42.4" class="st7" width="1.1" height="1.7"/>
	<path class="st7" d="M257.5,39.3h-1.1v-3.7h1.1V39.3z M257.5,32.7h-1.1V29h1.1V32.7z"/>
	<polygon class="st7" points="257.5,26 256.4,26 256.4,24.9 255.4,24.9 255.4,23.8 257.5,23.8 	"/>
	<path class="st7" d="M252.6,24.9h-3.2v-1.1h3.2V24.9z M246.6,24.9h-3.2v-1.1h3.2L246.6,24.9z M240.6,24.9h-3.2v-1.1h3.2V24.9z
		 M234.7,24.9h-3.3v-1.1h3.3L234.7,24.9z M228.7,24.9h-3.2v-1.1h3.2V24.9z M222.7,24.9h-3.1v-1.1h3.2L222.7,24.9z M216.7,24.9h-3.2
		v-1.1h3.2V24.9z M210.7,24.9h-3.2v-1.1h3.2V24.9z M204.7,24.9h-3.2v-1.1h3.2L204.7,24.9z M198.7,24.9h-3.3v-1.1h3.6L198.7,24.9z
		 M192.7,24.9h-3.3v-1.1h3.6L192.7,24.9z M186.7,24.9h-3.2v-1.1h3.2V24.9z M180.7,24.9h-3.2v-1.1h3.2V24.9z"/>
	<rect x="173.5" y="23.8" class="st7" width="1.6" height="1.1"/>
</g>
<path d="M84.5,117.9c0,0.5-0.2,1.1-0.6,1.4c-0.5,0.4-1.1,0.5-1.8,0.5c-0.6,0-1.3-0.1-1.8-0.3v-0.8c0.6,0.2,1.2,0.4,1.9,0.4
	c0.4,0,0.8-0.1,1.2-0.3c0.3-0.2,0.4-0.5,0.4-0.8c0-0.2,0-0.4-0.1-0.6c-0.1-0.2-0.3-0.3-0.5-0.4c-0.3-0.2-0.7-0.3-1-0.4
	c-0.5-0.2-1-0.4-1.3-0.8c-0.3-0.3-0.4-0.8-0.4-1.2c0-0.5,0.2-1,0.6-1.2c0.5-0.3,1-0.5,1.6-0.5c0.7,0,1.3,0.1,1.9,0.4l-0.2,0.7
	c-0.5-0.2-1.1-0.3-1.7-0.3c-0.4,0-0.7,0.1-1,0.3c-0.2,0.2-0.4,0.5-0.3,0.8c0,0.2,0,0.4,0.1,0.6c0.1,0.2,0.3,0.3,0.4,0.4
	c0.3,0.2,0.7,0.3,1,0.4c0.5,0.2,1,0.4,1.5,0.8C84.5,117.1,84.6,117.5,84.5,117.9z"/>
<path d="M87.8,119.8c-0.7,0-1.3-0.2-1.8-0.7c-0.5-0.5-0.7-1.2-0.7-1.9c0-0.7,0.2-1.4,0.6-2c0.4-0.5,1-0.7,1.6-0.7
	c0.6,0,1.1,0.2,1.5,0.6c0.4,0.5,0.6,1.1,0.6,1.7v0.5h-3.5c0,0.5,0.1,1,0.4,1.4c0.3,0.3,0.8,0.5,1.2,0.5c0.6,0,1.1-0.1,1.6-0.3v0.7
	c-0.3,0.1-0.5,0.2-0.8,0.3C88.4,119.8,88.1,119.8,87.8,119.8z M87.6,115.2c-0.4,0-0.7,0.1-1,0.4c-0.3,0.3-0.4,0.7-0.4,1.1h2.7
	c0-0.4-0.1-0.8-0.3-1.1C88.2,115.3,87.9,115.1,87.6,115.2z"/>
<path d="M92.8,119.8c-0.6,0-1.3-0.2-1.7-0.7c-0.4-0.5-0.6-1.2-0.6-1.9c-0.1-0.7,0.2-1.4,0.6-2c0.4-0.5,1.1-0.7,1.8-0.7
	c0.2,0,0.5,0,0.7,0.1c0.2,0,0.4,0.1,0.6,0.2l-0.2,0.7c-0.2-0.1-0.4-0.1-0.6-0.2c-0.2,0-0.4-0.1-0.5-0.1c-1,0-1.5,0.7-1.5,2
	c0,0.5,0.1,1,0.4,1.4c0.3,0.4,0.7,0.5,1.1,0.5c0.4,0,0.9-0.1,1.3-0.3v0.7C93.7,119.8,93.2,119.8,92.8,119.8z"/>
<path d="M99.5,117.2c0,0.7-0.2,1.4-0.6,1.9c-0.4,0.5-1.1,0.7-1.7,0.7c-0.4,0-0.8-0.1-1.2-0.3c-0.4-0.2-0.7-0.6-0.8-1
	c-0.2-0.4-0.3-0.9-0.3-1.4c0-0.7,0.2-1.4,0.6-1.9c0.9-0.9,2.5-0.9,3.4,0C99.3,115.7,99.5,116.4,99.5,117.2z M95.6,117.2
	c0,0.5,0.1,1,0.4,1.5c0.6,0.6,1.5,0.7,2.1,0.2l0.2-0.2c0.5-0.9,0.5-2.1,0-3c-0.6-0.6-1.6-0.7-2.2-0.1c0,0,0,0,0,0l0,0l-0.1,0.1
	C95.7,116.1,95.6,116.6,95.6,117.2z"/>
<path d="M104.1,119.7v-3.3c0-0.4-0.1-0.7-0.3-1c-0.2-0.2-0.6-0.3-0.9-0.3c-0.4,0-0.9,0.1-1.2,0.4c-0.3,0.4-0.4,0.9-0.4,1.4v2.7h-0.8
	v-5h0.6l0.1,0.7l0,0c0.2-0.3,0.4-0.5,0.7-0.6c0.3-0.1,0.6-0.2,0.9-0.2c0.5,0,1,0.1,1.4,0.4c0.3,0.4,0.5,0.9,0.5,1.4v3.3L104.1,119.7
	z"/>
<path d="M109.7,119L109.7,119c-0.4,0.5-1,0.8-1.6,0.8c-0.6,0-1.2-0.2-1.6-0.7c-0.4-0.6-0.6-1.2-0.6-1.9c0-0.7,0.1-1.4,0.6-2
	c0.4-0.5,1-0.7,1.6-0.7c0.6,0,1.2,0.2,1.6,0.8h0.1v-2.8h0.8v7.2h-0.6L109.7,119z M108.2,119.1c0.4,0,0.8-0.1,1.1-0.4
	c0.3-0.4,0.4-0.9,0.3-1.4v-0.2c0.1-0.5-0.1-1.1-0.3-1.6c-0.3-0.3-0.7-0.5-1.1-0.5c-0.4,0-0.8,0.2-1,0.5c-0.5,0.9-0.5,2.1,0,3
	C107.4,119,107.8,119.2,108.2,119.1L108.2,119.1z"/>
<path d="M115,119.7l-0.2-0.7l0,0c-0.2,0.3-0.5,0.5-0.8,0.7c-0.3,0.1-0.6,0.2-0.9,0.2c-0.4,0-0.8-0.1-1.2-0.4
	c-0.3-0.3-0.5-0.7-0.4-1.1c0-1,0.8-1.6,2.5-1.6h0.8v-0.3c0-0.3-0.1-0.6-0.2-0.9c-0.2-0.2-0.5-0.3-0.8-0.3c-0.5,0-1,0.2-1.4,0.4
	l-0.2-0.6c0.3-0.1,0.5-0.3,0.8-0.3c0.3-0.1,0.6-0.1,0.9-0.1c0.5,0,1,0.1,1.3,0.4c0.3,0.4,0.5,0.8,0.4,1.3v3.5L115,119.7z
	 M113.3,119.2c0.4,0,0.8-0.1,1.1-0.4c0.3-0.3,0.4-0.7,0.4-1.1v-0.4H114c-0.5,0-0.9,0.1-1.3,0.3c-0.3,0.2-0.4,0.5-0.4,0.8
	c0,0.2,0.1,0.5,0.3,0.6C112.7,119.1,113,119.2,113.3,119.2z"/>
<path d="M119.3,114.5c0.2,0,0.4,0,0.6,0.1l-0.1,0.7c-0.2,0-0.4-0.1-0.6-0.1c-0.4,0-0.8,0.2-1,0.5c-0.3,0.3-0.5,0.8-0.4,1.3v2.7H117
	v-5.1h0.7l0.1,1l0,0c0.2-0.3,0.4-0.6,0.7-0.8C118.7,114.7,119,114.5,119.3,114.5z"/>
<path d="M119.8,114.6h0.8l1.1,2.8c0.2,0.5,0.3,0.9,0.5,1.4l0,0c0-0.3,0.1-0.5,0.2-0.8c0.1-0.4,0.6-1.6,1.3-3.5h0.8l-2.2,5.8
	c-0.2,0.5-0.4,0.9-0.8,1.2c-0.3,0.2-0.7,0.4-1.1,0.4c-0.2,0-0.5,0-0.7-0.1v-0.6c0.2,0,0.4,0.1,0.6,0.1c0.5,0,1-0.4,1.1-0.9l0.3-0.7
	L119.8,114.6z"/>
<path d="M161.5,117.9c0,0.5-0.2,1.1-0.6,1.4c-0.5,0.4-1.1,0.5-1.8,0.5c-0.6,0-1.3-0.1-1.9-0.3v-0.8c0.6,0.2,1.2,0.4,1.9,0.4
	c0.4,0,0.8-0.1,1.2-0.3c0.3-0.2,0.4-0.5,0.4-0.8c0-0.2,0-0.4-0.1-0.6c-0.1-0.2-0.3-0.3-0.5-0.4c-0.3-0.2-0.7-0.3-1-0.4
	c-0.5-0.2-1-0.4-1.4-0.8c-0.3-0.3-0.4-0.8-0.4-1.2c0-0.5,0.2-0.9,0.6-1.2c0.5-0.3,1-0.5,1.6-0.5c0.6,0,1.3,0.1,1.9,0.4l-0.2,0.7
	c-0.5-0.2-1.1-0.3-1.6-0.3c-0.3,0-0.7,0.1-0.9,0.3c-0.2,0.2-0.4,0.5-0.4,0.8c0,0.2,0,0.4,0.1,0.6c0.1,0.2,0.3,0.3,0.4,0.4
	c0.3,0.2,0.6,0.3,0.9,0.4c0.5,0.2,1,0.4,1.5,0.8C161.4,117.1,161.5,117.5,161.5,117.9z"/>
<path d="M164.7,119.8c-0.7,0-1.3-0.2-1.8-0.7c-0.5-0.5-0.7-1.2-0.7-1.9c0-0.7,0.2-1.4,0.6-2c0.4-0.5,1-0.7,1.6-0.7
	c0.6,0,1.1,0.2,1.5,0.6c0.4,0.5,0.6,1.1,0.6,1.7v0.5h-3.5c0,0.5,0.1,1,0.5,1.4c0.3,0.3,0.7,0.5,1.2,0.5c0.6,0,1.1-0.1,1.6-0.3v0.7
	c-0.2,0.1-0.5,0.2-0.8,0.3C165.3,119.8,165,119.8,164.7,119.8z M164.5,115.2c-0.4,0-0.7,0.1-0.9,0.4c-0.3,0.3-0.4,0.7-0.4,1.1h2.6
	c0-0.4-0.1-0.8-0.3-1.1C165.2,115.3,164.8,115.1,164.5,115.2z"/>
<path d="M169.7,119.8c-0.6,0-1.3-0.2-1.7-0.7c-0.4-0.5-0.6-1.2-0.6-1.9c0-0.7,0.2-1.4,0.6-2c0.5-0.5,1.1-0.7,1.8-0.7
	c0.2,0,0.5,0,0.7,0.1c0.2,0,0.4,0.1,0.6,0.2l-0.2,0.7c-0.2-0.1-0.4-0.1-0.6-0.2c-0.2,0-0.4-0.1-0.5-0.1c-1,0-1.6,0.7-1.6,2
	c0,0.5,0.1,1,0.4,1.4c0.3,0.3,0.7,0.5,1.1,0.5c0.4,0,0.9-0.1,1.3-0.3v0.7C170.6,119.7,170.1,119.8,169.7,119.8z"/>
<path d="M176.4,117.2c0,0.7-0.2,1.4-0.6,1.9c-0.4,0.5-1.1,0.7-1.7,0.7c-0.4,0-0.8-0.1-1.2-0.3c-0.4-0.2-0.6-0.6-0.8-1
	c-0.2-0.4-0.3-0.9-0.3-1.4c0-0.7,0.2-1.4,0.6-1.9c0.4-0.5,1.1-0.7,1.7-0.7c0.6,0,1.3,0.2,1.7,0.7
	C176.2,115.7,176.5,116.4,176.4,117.2z M172.5,117.2c0,0.5,0.1,1,0.4,1.5c0.6,0.6,1.5,0.7,2.2,0.1l0,0l0.1-0.1c0.5-0.9,0.5-2.1,0-3
	c-0.6-0.6-1.6-0.7-2.2-0.1l-0.1,0.1C172.6,116.1,172.5,116.6,172.5,117.2z"/>
<path d="M181,119.7v-3.3c0.1-0.4-0.1-0.7-0.3-1c-0.2-0.2-0.6-0.3-0.9-0.3c-0.4,0-0.9,0.1-1.2,0.4c-0.3,0.4-0.4,0.9-0.4,1.4v2.7h-0.8
	v-5h0.6l0.1,0.7l0,0c0.2-0.3,0.4-0.5,0.7-0.6c0.3-0.1,0.6-0.2,0.9-0.2c0.9-0.2,1.7,0.4,1.9,1.3l0,0c0,0.2,0,0.4,0,0.6v3.3L181,119.7
	z"/>
<path d="M186.6,119L186.6,119c-0.4,0.5-1,0.8-1.6,0.8c-0.6,0-1.2-0.2-1.5-0.7c-0.4-0.5-0.6-1.2-0.6-1.9c0-0.7,0.1-1.4,0.6-2
	c0.7-0.9,2-1,2.8-0.3c0.1,0.1,0.2,0.2,0.3,0.3h0.1v-2.8h0.8v7.2h-0.6L186.6,119z M185.1,119.1c0.4,0,0.9-0.1,1.1-0.4
	c0.3-0.4,0.4-0.9,0.4-1.4v-0.2c0-0.5-0.1-1.1-0.4-1.6c-0.3-0.3-0.7-0.5-1.1-0.5c-0.4,0-0.8,0.2-1,0.5c-0.3,0.5-0.4,1-0.4,1.5
	c0,0.5,0.1,1,0.4,1.5C184.3,119,184.7,119.2,185.1,119.1L185.1,119.1z"/>
<path d="M191.9,119.7l-0.1-0.7l0,0c-0.2,0.3-0.5,0.5-0.8,0.7c-0.3,0.1-0.7,0.2-1,0.2c-0.4,0-0.9-0.1-1.2-0.4
	c-0.3-0.3-0.4-0.7-0.4-1.1c0-1,0.8-1.6,2.5-1.6h0.9v-0.3c0-0.3-0.1-0.6-0.3-0.9c-0.2-0.2-0.5-0.3-0.8-0.3c-0.5,0-1,0.2-1.4,0.4
	L189,115c0.3-0.1,0.5-0.3,0.8-0.3c0.3-0.1,0.6-0.1,0.9-0.1c0.5,0,1,0.1,1.3,0.4c0.3,0.4,0.5,0.8,0.4,1.3v3.5L191.9,119.7z
	 M190.2,119.2c0.4,0,0.8-0.1,1.1-0.4c0.3-0.3,0.4-0.7,0.4-1.1v-0.4H191c-0.5,0-0.9,0.1-1.3,0.3c-0.3,0.2-0.4,0.5-0.4,0.8
	c0,0.2,0.1,0.5,0.2,0.6C189.7,119.1,189.9,119.2,190.2,119.2L190.2,119.2z"/>
<path d="M196.2,114.5c0.2,0,0.4,0,0.6,0.1l-0.1,0.7c-0.2,0-0.4-0.1-0.6-0.1c-0.4,0-0.8,0.2-1.1,0.5c-0.3,0.4-0.5,0.8-0.4,1.3v2.7
	h-0.8v-5.1h0.6l0.1,1l0,0c0.2-0.3,0.4-0.6,0.7-0.8C195.5,114.6,195.9,114.5,196.2,114.5z"/>
<path d="M196.8,114.6h0.8l1.1,2.8c0.2,0.5,0.3,0.9,0.5,1.4l0,0c0.1-0.3,0.1-0.6,0.3-0.8c0.1-0.4,0.5-1.6,1.2-3.5h0.8l-2.2,5.8
	c-0.2,0.5-0.4,0.9-0.8,1.2c-0.3,0.2-0.7,0.4-1.1,0.4c-0.2,0-0.5,0-0.7-0.1v-0.6c0.2,0,0.4,0.1,0.6,0.1c0.5,0,1-0.4,1.1-0.9l0.3-0.7
	L196.8,114.6z"/>
<path d="M238.3,117.9c0,0.5-0.2,1.1-0.6,1.4c-0.5,0.4-1.1,0.5-1.8,0.5c-0.6,0-1.3-0.1-1.9-0.3v-0.8c0.6,0.2,1.2,0.4,1.9,0.4
	c0.4,0,0.8-0.1,1.2-0.3c0.3-0.2,0.4-0.5,0.4-0.8c0-0.2,0-0.4-0.1-0.6c-0.1-0.2-0.3-0.3-0.5-0.4c-0.3-0.2-0.7-0.3-1-0.4
	c-0.5-0.2-1-0.4-1.4-0.8c-0.3-0.3-0.4-0.8-0.4-1.2c0-0.5,0.2-1,0.6-1.2c0.5-0.3,1-0.5,1.6-0.5c0.6,0,1.3,0.1,1.9,0.4l-0.2,0.7
	c-0.5-0.2-1.1-0.3-1.6-0.3c-0.3,0-0.7,0.1-0.9,0.3c-0.2,0.2-0.4,0.5-0.4,0.8c0,0.2,0,0.4,0.1,0.6c0.1,0.2,0.3,0.3,0.4,0.4
	c0.3,0.2,0.6,0.3,0.9,0.4c0.5,0.2,1,0.4,1.5,0.8C238.2,117.1,238.4,117.5,238.3,117.9z"/>
<path d="M241.5,119.8c-0.7,0-1.3-0.2-1.8-0.7c-0.5-0.5-0.7-1.2-0.7-1.9c0-0.7,0.2-1.4,0.6-2c0.4-0.5,1-0.7,1.6-0.7
	c0.6,0,1.1,0.2,1.5,0.6c0.4,0.5,0.6,1.1,0.6,1.7v0.5h-3.5c0,0.5,0.1,1,0.4,1.4c0.3,0.3,0.8,0.5,1.2,0.5c0.6,0,1.1-0.1,1.6-0.3v0.7
	c-0.2,0.1-0.5,0.2-0.8,0.3C242.1,119.8,241.8,119.8,241.5,119.8z M241.3,115.2c-0.4,0-0.7,0.1-1,0.4c-0.3,0.3-0.4,0.7-0.4,1.1h2.6
	c0-0.4-0.1-0.8-0.3-1.1C242,115.3,241.7,115.1,241.3,115.2L241.3,115.2z"/>
<path d="M246.6,119.8c-0.6,0-1.3-0.2-1.7-0.7c-0.8-1.2-0.8-2.7,0-3.9c0.5-0.5,1.1-0.7,1.8-0.7c0.2,0,0.5,0,0.7,0.1
	c0.2,0,0.4,0.1,0.6,0.2l-0.2,0.7c-0.2-0.1-0.4-0.1-0.6-0.2c-0.2,0-0.4-0.1-0.5-0.1c-1,0-1.6,0.7-1.6,2c0,0.5,0.1,1,0.4,1.4
	c0.3,0.3,0.7,0.5,1.1,0.5c0.4,0,0.9-0.1,1.3-0.3v0.7C247.4,119.7,247,119.8,246.6,119.8z"/>
<path d="M253.2,117.2c0,0.7-0.2,1.4-0.6,1.9c-0.4,0.5-1.1,0.7-1.7,0.7c-0.4,0-0.8-0.1-1.2-0.3c-0.4-0.2-0.7-0.6-0.8-1
	c-0.2-0.4-0.3-0.9-0.3-1.4c0-0.7,0.2-1.4,0.6-1.9c0.9-0.9,2.5-0.9,3.4,0l0,0C253.1,115.7,253.3,116.4,253.2,117.2z M249.4,117.2
	c0,0.5,0.1,1,0.4,1.5c0.6,0.6,1.5,0.7,2.2,0.1l0,0l0.1-0.1c0.5-0.9,0.5-2.1,0-3c-0.3-0.3-0.7-0.5-1.2-0.5c-0.4,0-0.9,0.2-1.1,0.5
	C249.5,116.1,249.3,116.6,249.4,117.2L249.4,117.2z"/>
<path d="M257.9,119.7v-3.3c0-0.4-0.1-0.7-0.3-1c-0.2-0.2-0.6-0.3-0.9-0.3c-0.4,0-0.9,0.1-1.2,0.4c-0.3,0.4-0.4,0.9-0.4,1.4v2.7h-0.8
	v-5h0.6l0.1,0.7l0,0c0.2-0.2,0.4-0.4,0.7-0.6c0.3-0.2,0.7-0.2,1-0.2c0.9-0.1,1.7,0.5,1.9,1.3c0,0.2,0,0.4,0,0.6v3.3L257.9,119.7z"/>
<path d="M263.5,119L263.5,119c-0.4,0.5-1,0.8-1.6,0.8c-0.6,0-1.2-0.2-1.5-0.7c-0.4-0.6-0.6-1.2-0.6-1.9c0-0.7,0.1-1.4,0.6-2
	c0.4-0.5,0.9-0.7,1.5-0.7c0.6,0,1.2,0.3,1.6,0.8h0v-2.8h0.8v7.2h-0.6L263.5,119z M262,119.1c0.4,0,0.9-0.1,1.1-0.4
	c0.3-0.4,0.4-0.9,0.4-1.4v-0.2c0-0.5-0.1-1.1-0.4-1.6c-0.3-0.3-0.7-0.5-1.1-0.5c-0.4,0-0.8,0.2-1,0.5c-0.3,0.5-0.4,1-0.4,1.5
	c0,0.5,0.1,1,0.4,1.5C261.2,119,261.6,119.2,262,119.1L262,119.1z"/>
<path d="M268.8,119.7l-0.1-0.7l0,0c-0.2,0.3-0.5,0.5-0.8,0.7c-0.3,0.1-0.6,0.2-1,0.2c-0.4,0-0.9-0.1-1.2-0.4
	c-0.3-0.3-0.4-0.7-0.4-1.1c0-1,0.8-1.6,2.5-1.6h0.9v-0.3c0-0.3-0.1-0.6-0.3-0.9c-0.2-0.2-0.5-0.3-0.8-0.3c-0.5,0-1,0.2-1.4,0.4
	l-0.2-0.6c0.3-0.1,0.5-0.3,0.8-0.3c0.3-0.1,0.6-0.1,0.9-0.1c0.5,0,1,0.1,1.3,0.4c0.3,0.4,0.5,0.8,0.4,1.3v3.5L268.8,119.7z
	 M267,119.2c0.4,0,0.8-0.1,1.1-0.4c0.3-0.3,0.4-0.7,0.4-1.1v-0.4h-0.8c-0.5,0-0.9,0.1-1.3,0.3c-0.3,0.2-0.4,0.5-0.4,0.8
	c0,0.2,0.1,0.5,0.2,0.6C266.5,119.1,266.7,119.2,267,119.2z"/>
<path d="M273.1,114.5c0.2,0,0.4,0,0.6,0.1l-0.1,0.7c-0.2,0-0.4-0.1-0.6-0.1c-0.4,0-0.8,0.2-1,0.5c-0.3,0.3-0.5,0.8-0.4,1.3v2.7h-0.8
	v-5.1h0.6l0.1,1l0,0c0.2-0.3,0.4-0.6,0.7-0.8C272.4,114.6,272.7,114.5,273.1,114.5z"/>
<path d="M273.6,114.6h0.8l1.1,2.8c0.2,0.5,0.3,0.9,0.5,1.4l0,0c0.1-0.3,0.1-0.6,0.2-0.8c0.1-0.4,0.5-1.6,1.3-3.5h0.8l-2.2,5.8
	c-0.2,0.5-0.4,0.9-0.8,1.2c-0.3,0.2-0.7,0.4-1.1,0.4c-0.2,0-0.5,0-0.7-0.1v-0.6c0.2,0,0.4,0.1,0.6,0.1c0.5,0,1-0.4,1.1-0.9l0.3-0.7
	L273.6,114.6z"/>
<path class="st8" d="M24.4,16.6l-1.8-6.8h1l1,4.5c0.1,0.5,0.2,0.9,0.3,1.4c0.2-0.7,0.3-1.1,0.3-1.3l1.3-4.6h1l1,3.4
	c0.2,0.8,0.4,1.6,0.5,2.4c0.1-0.4,0.2-0.9,0.4-1.5l1-4.4h0.9l-1.9,6.8h-0.9l-1.4-5.2l-0.2-0.8c-0.1,0.3-0.1,0.6-0.2,0.8l-1.4,5.2
	H24.4z"/>
<path class="st8" d="M31.9,16.6v-4.9h0.8v0.8c0.1-0.3,0.3-0.5,0.5-0.7c0.2-0.1,0.3-0.2,0.5-0.2c0.3,0,0.6,0.1,0.8,0.3l-0.3,0.8
	c-0.2-0.1-0.4-0.2-0.6-0.2c-0.2,0-0.3,0.1-0.5,0.2c-0.2,0.1-0.3,0.3-0.3,0.5c-0.1,0.3-0.1,0.6-0.1,0.9v2.6L31.9,16.6z"/>
<path class="st8" d="M35.1,10.8v-1h0.8v0.9L35.1,10.8z M35.1,16.6v-4.9h0.8v4.9L35.1,16.6z"/>
<path class="st8" d="M39,15.9l0.1,0.7c-0.2,0-0.4,0.1-0.6,0.1c-0.2,0-0.5,0-0.7-0.1c-0.2-0.1-0.3-0.2-0.3-0.4
	c-0.1-0.3-0.1-0.7-0.1-1v-2.8h-0.6v-0.6h0.6v-1.3l0.8-0.5v1.7H39v0.7h-0.8v2.9c0,0.2,0,0.3,0,0.5c0,0.1,0.1,0.1,0.1,0.2
	c0.1,0,0.2,0.1,0.3,0.1L39,15.9z"/>
<path class="st8" d="M43.2,15l0.9,0.1c-0.1,0.5-0.4,0.9-0.8,1.2c-0.4,0.3-0.9,0.4-1.4,0.4c-0.6,0-1.3-0.2-1.7-0.7
	c-0.5-0.5-0.7-1.2-0.6-1.9c0-0.7,0.2-1.4,0.6-1.9c0.4-0.5,1-0.7,1.7-0.7c0.6,0,1.2,0.2,1.6,0.7c0.4,0.5,0.7,1.2,0.6,1.9v0.2h-3.7
	c0,0.5,0.2,0.9,0.5,1.2c0.3,0.3,0.6,0.4,1,0.4c0.3,0,0.6-0.1,0.8-0.2C42.9,15.6,43.1,15.3,43.2,15z M40.4,13.6h2.8
	c0-0.4-0.1-0.7-0.3-1c-0.2-0.3-0.6-0.5-1-0.5c-0.4,0-0.7,0.1-1,0.4C40.6,12.9,40.4,13.3,40.4,13.6L40.4,13.6z"/>
<path class="st9" d="M235.1,16.6V9.8h3c0.5,0,0.9,0,1.4,0.2c0.3,0.1,0.6,0.4,0.8,0.6c0.2,0.3,0.3,0.6,0.3,1c0,0.5-0.2,0.9-0.5,1.3
	c-0.4,0.4-0.9,0.6-1.4,0.6c0.2,0.1,0.4,0.2,0.5,0.3c0.3,0.3,0.5,0.6,0.8,0.9l1.2,1.9h-1.1l-0.9-1.4c-0.3-0.4-0.5-0.7-0.7-1
	c-0.1-0.2-0.3-0.3-0.4-0.5c-0.1-0.1-0.3-0.1-0.4-0.2H236v3L235.1,16.6z M235.9,12.8h1.9c0.3,0,0.7,0,1-0.1c0.2-0.1,0.4-0.2,0.5-0.4
	c0.1-0.2,0.2-0.4,0.2-0.6c0-0.3-0.1-0.6-0.4-0.8c-0.3-0.2-0.7-0.4-1.1-0.3H236L235.9,12.8z"/>
<path class="st9" d="M245.1,15l0.9,0.1c-0.1,0.5-0.4,0.9-0.8,1.2c-1,0.6-2.3,0.5-3.1-0.3c-0.5-0.5-0.7-1.2-0.6-1.9
	c0-0.7,0.2-1.4,0.6-1.9c0.4-0.5,1-0.7,1.7-0.7c0.6,0,1.2,0.2,1.6,0.7c0.4,0.5,0.7,1.2,0.6,1.9v0.2h-3.7c0,0.5,0.2,0.9,0.5,1.3
	c0.3,0.3,0.6,0.4,1,0.4c0.3,0,0.6-0.1,0.8-0.2C244.9,15.6,245.1,15.3,245.1,15z M242.4,13.6h2.8c0-0.4-0.1-0.7-0.3-1
	c-0.2-0.3-0.6-0.5-1-0.5c-0.4,0-0.7,0.1-0.9,0.4C242.6,12.8,242.4,13.3,242.4,13.6L242.4,13.6z"/>
<path class="st9" d="M250.3,16c-0.3,0.2-0.6,0.4-0.9,0.5c-0.3,0.1-0.6,0.2-0.9,0.2c-0.5,0-0.9-0.1-1.2-0.4c-0.5-0.4-0.6-1.1-0.3-1.7
	c0.1-0.2,0.2-0.4,0.4-0.5c0.2-0.1,0.4-0.2,0.6-0.3c0.2-0.1,0.5-0.1,0.8-0.1c0.5,0,1-0.1,1.5-0.3v-0.2c0-0.3-0.1-0.5-0.2-0.7
	c-0.3-0.2-0.6-0.3-0.9-0.3c-0.3,0-0.6,0.1-0.9,0.2c-0.2,0.2-0.4,0.4-0.4,0.7l-0.8-0.1c0-0.3,0.2-0.6,0.4-0.9
	c0.2-0.2,0.5-0.4,0.7-0.5c0.4-0.1,0.7-0.2,1.1-0.2c0.3,0,0.7,0,1,0.1c0.2,0.1,0.4,0.2,0.6,0.4c0.1,0.2,0.2,0.4,0.3,0.6
	c0,0.3,0,0.5,0,0.8v1.1c0,0.5,0,1,0.1,1.5c0,0.2,0.1,0.4,0.2,0.6h-0.8C250.4,16.4,250.3,16.2,250.3,16z M250.2,14.1
	c-0.4,0.2-0.9,0.3-1.4,0.3c-0.3,0-0.5,0.1-0.7,0.2c-0.1,0.1-0.2,0.2-0.3,0.3c-0.1,0.1-0.1,0.3-0.1,0.4c0,0.2,0.1,0.4,0.3,0.6
	c0.2,0.2,0.5,0.3,0.7,0.2c0.3,0,0.6-0.1,0.9-0.2c0.2-0.1,0.4-0.3,0.6-0.6c0.1-0.3,0.1-0.6,0.1-0.8V14.1z"/>
<path class="st9" d="M255.5,16.6V16c-0.3,0.5-0.8,0.8-1.4,0.7c-0.4,0-0.8-0.1-1.1-0.3c-0.3-0.2-0.6-0.5-0.8-0.9
	c-0.2-0.4-0.3-0.9-0.3-1.4c0-0.5,0.1-0.9,0.2-1.3c0.1-0.4,0.4-0.8,0.7-1c0.3-0.2,0.7-0.3,1.1-0.3c0.3,0,0.5,0.1,0.8,0.2
	c0.2,0.1,0.4,0.3,0.6,0.5V9.8h0.8v6.8L255.5,16.6z M252.9,14.2c0,0.5,0.1,1,0.4,1.4c0.2,0.3,0.6,0.5,1,0.5c0.4,0,0.8-0.1,1-0.4
	c0.3-0.4,0.4-0.9,0.4-1.4c0-0.5-0.1-1.1-0.4-1.5c-0.2-0.3-0.6-0.5-1-0.5c-0.4,0-0.7,0.2-0.9,0.5C253,13.1,252.9,13.6,252.9,14.2z"/>
<path class="st10" d="M27.2,99.4c-0.1,0-0.2,0-0.3-0.1h-0.1l-0.2-0.2h-0.2c-0.4-0.2-0.7-0.6-0.6-1v-0.4c0-1-0.2-1.9-0.4-2.8
	c-0.6-0.4-1.1-0.9-1.6-1.3c-2.3-2.2-4-4.9-5-7.9c-0.5-2.1-0.7-4.2-0.7-6.4c0.2-3.1,1-6.1,2.5-8.8c1.1-2.1,2.5-3.9,4.3-5.4l0.1-0.1
	c0.2-0.2,0.5-0.4,0.6-0.6c0.1-0.2,0.2-0.4,0.2-0.6c0-0.2,0.1-0.4,0.2-0.5c0.1-0.1,0.3-0.2,0.5-0.2c0.2,0,0.5,0.2,0.6,0.4
	c0,0.1,0,0.1,0,0.2l0.9,1.7c0.2,0.3,0.4,0.5,0.6,0.7c0.8,0.8,1.6,1.7,2.3,2.6c1.6,2.1,2.8,4.6,3.6,7.1c0.5,1.6,0.7,3.2,0.7,4.8
	c0.1,4.8-1.7,9.4-5.1,12.7c-0.5,0.6-1.1,1.1-1.8,1.5c-0.2,0.2-0.3,0.5-0.3,0.7v3.2C27.9,99.1,27.6,99.4,27.2,99.4z"/>
<path class="st0" d="M26.3,63.4L26.3,63.4l1,1.8c0.2,0.3,0.4,0.6,0.7,0.9c0.8,0.8,1.6,1.7,2.3,2.6c1.6,2.1,2.7,4.4,3.5,6.9
	c0.5,1.5,0.7,3.1,0.7,4.7c0.1,4.6-1.6,9-4.9,12.3c-0.6,0.5-1.1,1-1.8,1.5l0,0c-0.3,0.4-0.4,0.8-0.5,1.2l0,0
	c-0.1,0.3-0.1,0.6-0.1,0.9v2.4c0,0.1,0,0.2-0.1,0.2c-0.2-0.1-0.3-0.2-0.5-0.2c-0.4-0.2-0.4,0-0.4-0.5v-0.4c0-1.1-0.2-2.1-0.5-3.1
	c0,0,0-0.1,0-0.1l0,0c-0.6-0.4-1.2-1-1.7-1.4c-2.2-2.1-3.9-4.7-4.9-7.6c-0.4-2-0.7-4-0.7-6c0.2-3,1-6,2.4-8.6c1-2,2.4-3.8,4.1-5.3
	c0.3-0.2,0.6-0.5,0.9-0.8c0.2-0.3,0.3-0.7,0.3-1.1L26.3,63.4 M26.3,62.1c-0.3,0-0.7,0.2-0.9,0.4c-0.3,0.3-0.4,0.6-0.4,1
	c0,0.1-0.1,0.2-0.1,0.2c-0.2,0.2-0.3,0.3-0.5,0.5l-0.1,0.1c-1.8,1.6-3.2,3.6-4.3,5.7c-1.5,2.8-2.4,5.9-2.6,9.1
	c0,2.2,0.3,4.4,0.8,6.6c1,3.1,2.9,5.9,5.3,8.2c0.5,0.4,1,0.8,1.5,1.3c0.2,0.8,0.3,1.6,0.4,2.5V98c-0.1,0.8,0.3,1.5,1,1.8h0.1
	l0.2,0.1h-0.1c0.2,0.1,0.4,0.2,0.6,0.2c0.8,0,1.4-0.7,1.4-1.5V96c0-0.2,0-0.3,0-0.5v-0.2c0-0.1,0.1-0.2,0.1-0.3
	c0.7-0.4,1.3-0.9,1.9-1.5c3.5-3.5,5.4-8.3,5.3-13.2c0-1.7-0.3-3.4-0.8-5.1c-0.8-2.7-2-5.2-3.7-7.4c-0.7-0.9-1.5-1.8-2.3-2.7
	c-0.2-0.2-0.4-0.4-0.5-0.6L27.5,63c0-0.1,0-0.1-0.1-0.2C27.2,62.4,26.8,62.1,26.3,62.1L26.3,62.1z"/>
<path class="st11" d="M26.4,63.5l0.9,1.8c0.2,0.3,0.5,0.6,0.7,0.9c0.8,0.8,1.5,1.6,2.2,2.5c1.6,2.1,2.7,4.4,3.5,6.9
	c0.5,1.5,0.7,3.1,0.7,4.7c0.1,4.6-1.6,9-4.9,12.3c-0.6,0.5-1.2,1-1.8,1.5c-0.3,0-0.5-0.2-0.6-0.5c-0.2-0.4-0.4-0.8-0.5-1.3
	c-0.1-0.6-0.2-1.2-0.2-1.8v-0.3C26.5,90.3,26.2,63.6,26.4,63.5z"/>
<path class="st12" d="M26.4,63.4c0-0.1-0.1,0-0.1,0c0,0.4-0.1,0.8-0.3,1.1c-0.3,0.3-0.5,0.6-0.9,0.8c-1.7,1.5-3.1,3.3-4.2,5.3
	c-1.4,2.7-2.2,5.6-2.4,8.7c0,2,0.2,4.1,0.7,6.1c1,2.9,2.6,5.5,4.8,7.6c0.6,0.5,1.1,1,1.7,1.5c0.2,0,0.2-0.2,0.2-0.3
	c0.1-0.2,0.1-0.5,0.2-0.8l0.4-2.8L26.4,63.4z"/>
<path class="st10" d="M104,99.4c-0.1,0-0.2,0-0.3-0.1h-0.2l-0.2-0.2h-0.2c-0.4-0.2-0.7-0.6-0.6-1v-0.4c0-1-0.2-1.9-0.4-2.8
	c-0.6-0.4-1.1-0.9-1.6-1.3c-2.3-2.2-4-4.9-5-7.9c-0.5-2.1-0.7-4.2-0.7-6.4c0.2-3.1,1-6.1,2.5-8.8c1.1-2.1,2.5-3.9,4.3-5.4l0.1-0.1
	c0.2-0.2,0.5-0.4,0.6-0.6c0.1-0.2,0.2-0.4,0.2-0.6c0-0.2,0.1-0.4,0.2-0.5c0.1-0.1,0.3-0.2,0.5-0.2c0.2,0,0.5,0.2,0.6,0.4
	c0,0.1,0,0.1,0,0.2l0.9,1.6c0.2,0.3,0.4,0.5,0.6,0.7c0.8,0.8,1.6,1.7,2.3,2.6c1.6,2.1,2.8,4.6,3.6,7.1c0.5,1.6,0.7,3.3,0.8,4.9
	c0.1,4.7-1.7,9.3-5.1,12.7c-0.6,0.6-1.1,1.1-1.8,1.6c-0.2,0.2-0.3,0.5-0.3,0.7v0.2c0,0.2,0,0.4,0,0.6v2.4
	C104.8,99.1,104.4,99.4,104,99.4z"/>
<path class="st0" d="M103.2,63.4L103.2,63.4l0.9,1.8c0.2,0.3,0.5,0.6,0.7,0.9c0.8,0.8,1.6,1.7,2.3,2.6c1.6,2.1,2.7,4.4,3.5,6.9
	c0.5,1.5,0.7,3.1,0.7,4.7c0.1,4.6-1.6,9-4.9,12.3c-0.6,0.5-1.2,1-1.8,1.4l0,0c-0.3,0.3-0.4,0.8-0.5,1.2l0,0
	c-0.1,0.3-0.1,0.6-0.1,0.9v2.4c0,0.1,0,0.2-0.1,0.2c-0.1-0.1-0.3-0.2-0.5-0.2c-0.4-0.2-0.4,0-0.4-0.5v-0.4c0-1.1-0.2-2.1-0.5-3.1
	c0,0,0-0.1,0-0.1l0,0c-0.6-0.5-1.2-1-1.7-1.5c-2.2-2.1-3.9-4.7-4.9-7.6c-0.4-2-0.6-4-0.7-6c0.2-3,1-5.9,2.4-8.6
	c1.1-2,2.5-3.8,4.2-5.3c0.3-0.2,0.6-0.5,0.8-0.8c0.2-0.3,0.3-0.7,0.3-1.1L103.2,63.4 M103.1,62.1c-0.4,0-0.7,0.1-1,0.4
	c-0.3,0.3-0.4,0.6-0.4,1c0,0.1-0.1,0.2-0.1,0.2c-0.2,0.2-0.3,0.3-0.5,0.5l-0.1,0.1c-1.7,1.6-3.2,3.5-4.3,5.7
	c-1.5,2.8-2.4,5.9-2.6,9.1c0,2.2,0.3,4.4,0.8,6.6c1,3.1,2.9,5.9,5.3,8.2c0.4,0.4,1,0.8,1.5,1.3c0.2,0.8,0.3,1.6,0.3,2.5V98
	c-0.1,0.7,0.3,1.5,1,1.7h0.1l0.2,0.1h-0.1c0.2,0.1,0.4,0.2,0.6,0.2c0.8-0.1,1.4-0.7,1.3-1.5V96c0-0.2,0-0.3,0-0.5v-0.2
	c0-0.1,0.1-0.2,0.1-0.3c0.7-0.4,1.3-0.9,1.9-1.5c3.5-3.5,5.4-8.3,5.3-13.2c0-1.7-0.3-3.4-0.8-5.1c-0.8-2.7-2-5.2-3.7-7.4
	c-0.7-0.9-1.5-1.8-2.3-2.7c-0.2-0.2-0.4-0.4-0.5-0.6l-0.8-1.5c0-0.1,0-0.2-0.1-0.2C104.1,62.4,103.6,62.1,103.1,62.1L103.1,62.1z"/>
<path class="st11" d="M103.2,63.5l1,1.8c0.2,0.3,0.4,0.6,0.7,0.9c0.8,0.8,1.5,1.6,2.2,2.5c1.6,2.1,2.7,4.4,3.5,6.9
	c0.5,1.5,0.7,3.1,0.7,4.7c0.1,4.6-1.6,9-4.9,12.3c-0.6,0.5-1.2,1-1.8,1.4c-0.3,0-0.5-0.2-0.6-0.5c-0.2-0.4-0.4-0.8-0.5-1.3
	c-0.1-0.6-0.2-1.2-0.2-1.8v-0.2C103.4,90.2,103.1,63.6,103.2,63.5z"/>
<path class="st12" d="M103.2,63.4c0-0.1-0.1,0-0.1,0c0,0.4-0.1,0.8-0.3,1.1c-0.3,0.3-0.5,0.6-0.9,0.8c-1.7,1.5-3.1,3.3-4.2,5.3
	c-1.4,2.7-2.2,5.6-2.4,8.7c0,2,0.2,4.1,0.7,6.1c1,2.9,2.6,5.5,4.8,7.6c0.6,0.5,1.1,1,1.7,1.5c0.2,0,0.2-0.2,0.2-0.3
	c0.1-0.2,0.1-0.5,0.2-0.8l0.4-2.8L103.2,63.4z"/>
<path class="st10" d="M180.2,99.4c-0.1,0-0.2,0-0.3-0.1h-0.1l-0.2-0.2h-0.2c-0.4-0.2-0.7-0.6-0.6-1v-0.4c0-1-0.2-1.9-0.4-2.8
	c-0.6-0.4-1.1-0.9-1.6-1.3c-2.3-2.2-4-4.9-5-7.9c-0.5-2.1-0.7-4.2-0.7-6.4c0.2-3.1,1-6.1,2.5-8.8c1.1-2.1,2.6-3.9,4.3-5.5l0.1-0.1
	c0.2-0.2,0.5-0.4,0.6-0.6c0.1-0.2,0.2-0.4,0.2-0.6c0-0.2,0.1-0.4,0.2-0.5c0.1-0.1,0.3-0.2,0.5-0.2c0.2,0,0.5,0.2,0.6,0.4
	c0,0.1,0,0.1,0,0.2l0.9,1.6c0.2,0.3,0.4,0.5,0.6,0.7c0.8,0.8,1.6,1.7,2.3,2.6c1.6,2.1,2.8,4.6,3.6,7.1c0.5,1.6,0.7,3.3,0.8,4.9
	c0.1,4.7-1.7,9.3-5.1,12.7c-0.6,0.5-1.2,1.1-1.8,1.5c-0.2,0.2-0.3,0.5-0.3,0.7v0.2c0,0.2,0,0.4,0,0.6v2.4
	C180.9,99.1,180.6,99.4,180.2,99.4z"/>
<path class="st0" d="M179.3,63.4L179.3,63.4l0.9,1.8c0.2,0.3,0.4,0.6,0.7,0.9c0.8,0.8,1.6,1.7,2.3,2.6c1.6,2.1,2.7,4.4,3.5,6.9
	c0.5,1.5,0.7,3.1,0.7,4.7c0.1,4.6-1.6,9-4.9,12.3c-0.5,0.5-1.1,1-1.7,1.5l0,0c-0.3,0.3-0.4,0.8-0.5,1.2l0,0
	c-0.1,0.3-0.1,0.6-0.1,0.9v2.4c0,0.1,0,0.2-0.1,0.2c-0.2-0.1-0.3-0.2-0.5-0.2c-0.4-0.2-0.4,0-0.4-0.5v-0.4c0-1.1-0.2-2.1-0.5-3.1
	v-0.1l0,0c-0.6-0.5-1.2-0.9-1.7-1.4c-2.2-2.1-3.9-4.7-4.9-7.6c-0.4-2-0.7-4-0.7-6c0.2-3,1-6,2.4-8.6c1.1-2,2.5-3.8,4.2-5.3
	c0.3-0.2,0.6-0.5,0.9-0.8C179.2,64.2,179.3,63.8,179.3,63.4L179.3,63.4 M179.4,62.1c-0.4,0-0.7,0.1-1,0.4c-0.3,0.3-0.4,0.6-0.4,1
	c0,0.1,0,0.2-0.1,0.2c-0.2,0.2-0.3,0.3-0.5,0.5l-0.1,0.1c-1.8,1.6-3.3,3.5-4.4,5.7c-1.5,2.8-2.4,5.9-2.6,9.1c0,2.2,0.3,4.4,0.8,6.6
	c1,3.1,2.9,5.9,5.3,8.2c0.4,0.4,0.9,0.8,1.5,1.3c0.2,0.8,0.3,1.6,0.4,2.5V98c-0.1,0.8,0.3,1.5,1.1,1.7h0.1l0.2,0.1h-0.1
	c0.2,0.1,0.4,0.2,0.6,0.2c0.8,0,1.4-0.7,1.3-1.5c0,0,0,0,0,0l0,0V96c0-0.2,0-0.3,0-0.5v-0.2c0-0.1,0.1-0.2,0.1-0.3
	c0.7-0.4,1.3-0.9,1.9-1.5c3.5-3.5,5.4-8.3,5.3-13.2c0-1.7-0.3-3.4-0.8-5.1c-0.8-2.7-2-5.2-3.7-7.4c-0.7-0.9-1.5-1.8-2.4-2.7
	c-0.2-0.2-0.4-0.4-0.5-0.6l-0.8-1.5c0-0.1-0.1-0.1-0.1-0.2C180.2,62.4,179.8,62.1,179.4,62.1L179.4,62.1z"/>
<path class="st11" d="M179.4,63.5l1,1.8c0.2,0.3,0.4,0.6,0.7,0.9c0.8,0.8,1.5,1.6,2.2,2.5c1.6,2.1,2.7,4.4,3.5,6.9
	c0.5,1.5,0.7,3.1,0.7,4.7c0.1,4.6-1.6,9-4.9,12.3c-0.5,0.5-1.1,1-1.8,1.5c-0.3,0-0.5-0.2-0.6-0.5c-0.2-0.4-0.4-0.8-0.5-1.3
	c-0.1-0.6-0.2-1.2-0.1-1.8v-0.3C179.6,90.3,179.3,63.6,179.4,63.5z"/>
<path class="st12" d="M179.4,63.4c0-0.1-0.1,0-0.1,0c0,0.4-0.1,0.8-0.3,1.1c-0.3,0.3-0.5,0.6-0.9,0.8c-1.7,1.5-3.1,3.3-4.2,5.3
	c-1.4,2.7-2.2,5.6-2.4,8.7c0,2,0.3,4.1,0.7,6.1c1,2.9,2.6,5.6,4.9,7.7c0.6,0.5,1.1,1,1.7,1.5c0.2,0,0.2-0.2,0.2-0.3
	c0.1-0.2,0.1-0.5,0.2-0.8l0.4-2.8L179.4,63.4z"/>
<path class="st10" d="M257.2,99.4c-0.1,0-0.3,0-0.4-0.1h-0.1l-0.2-0.2h-0.1c-0.4-0.2-0.7-0.6-0.6-1v-0.4c0-1-0.2-1.9-0.4-2.8
	c-0.6-0.4-1.1-0.9-1.6-1.3c-2.3-2.2-4-4.9-5-7.9c-0.5-2.1-0.7-4.2-0.7-6.4c0.2-3.1,1-6.1,2.5-8.8c1.1-2.1,2.5-3.9,4.3-5.5l0.1-0.1
	c0.2-0.2,0.5-0.4,0.6-0.6c0.1-0.2,0.2-0.4,0.2-0.6c0-0.2,0.1-0.4,0.2-0.5c0.1-0.1,0.3-0.2,0.5-0.2c0.2,0,0.5,0.2,0.6,0.4v0.2
	l0.9,1.6c0.2,0.3,0.4,0.5,0.6,0.7c0.8,0.8,1.6,1.7,2.3,2.6c1.6,2.1,2.8,4.6,3.6,7.1c0.5,1.6,0.7,3.3,0.8,4.9
	c0.1,4.8-1.7,9.3-5.1,12.7c-0.6,0.6-1.1,1.1-1.8,1.5c-0.2,0.2-0.2,0.5-0.3,0.7v0.2c0,0.2,0,0.4,0,0.6v2.4
	C257.9,99.1,257.6,99.4,257.2,99.4z"/>
<path class="st0" d="M256.3,63.4L256.3,63.4l1,1.8c0.2,0.3,0.4,0.6,0.7,0.9c0.8,0.8,1.6,1.7,2.3,2.6c1.6,2.1,2.7,4.4,3.5,6.9
	c0.5,1.5,0.7,3.1,0.7,4.7c0.1,4.6-1.6,9-4.9,12.3c-0.6,0.5-1.2,1-1.8,1.4l0,0c-0.3,0.3-0.4,0.8-0.5,1.2l0,0
	c-0.1,0.3-0.1,0.6-0.1,0.9v2.4c0,0.1,0,0.2-0.1,0.2c-0.2-0.1-0.3-0.2-0.5-0.2c-0.4-0.2-0.4,0-0.4-0.5v-0.4c0-1.1-0.2-2.1-0.5-3.1
	v-0.1l0,0c-0.6-0.5-1.2-1-1.7-1.5c-2.2-2.1-3.9-4.7-4.9-7.6c-0.4-2-0.7-4-0.7-6c0.2-3,1-6,2.4-8.6c1.1-2,2.5-3.8,4.2-5.3
	c0.3-0.2,0.6-0.5,0.9-0.8C256.2,64.2,256.3,63.8,256.3,63.4L256.3,63.4 M256.4,62.1c-0.4,0-0.7,0.1-1,0.4c-0.3,0.3-0.4,0.6-0.4,1
	c0,0.1-0.1,0.2-0.1,0.2c-0.2,0.2-0.3,0.3-0.5,0.5l-0.1,0.1c-1.8,1.6-3.3,3.6-4.3,5.7c-1.5,2.8-2.4,5.9-2.6,9.1
	c0,2.2,0.3,4.4,0.8,6.6c1,3.1,2.8,5.9,5.3,8.2c0.4,0.4,0.9,0.8,1.5,1.3c0.2,0.8,0.3,1.6,0.4,2.5V98c-0.1,0.8,0.3,1.5,1,1.7h0.1
	l0.2,0.1h-0.1c0.2,0.1,0.4,0.2,0.6,0.2c0.8,0,1.4-0.7,1.3-1.5c0,0,0,0,0,0l0,0V96c0-0.2,0-0.3,0-0.5v-0.2c0-0.1,0.1-0.2,0.1-0.3
	c0.7-0.4,1.3-0.9,1.9-1.5c3.5-3.5,5.4-8.3,5.3-13.2c0-1.7-0.3-3.4-0.8-5.1c-0.8-2.7-2-5.2-3.7-7.4c-0.7-0.9-1.5-1.8-2.4-2.7
	c-0.2-0.2-0.4-0.4-0.5-0.6l-0.8-1.6c0-0.1-0.1-0.1-0.1-0.2C257.2,62.4,256.8,62.1,256.4,62.1L256.4,62.1z"/>
<path class="st11" d="M256.4,63.5l1,1.8c0.2,0.3,0.4,0.6,0.7,0.9c0.8,0.8,1.5,1.6,2.2,2.5c1.6,2.1,2.8,4.4,3.5,6.9
	c0.5,1.5,0.7,3.1,0.7,4.7c0.1,4.6-1.6,9-4.9,12.3c-0.5,0.5-1.1,1-1.8,1.4c-0.3,0-0.5-0.2-0.6-0.5c-0.2-0.4-0.4-0.8-0.5-1.3
	c-0.1-0.6-0.2-1.2-0.1-1.8v-0.2C256.6,90.2,256.3,63.6,256.4,63.5z"/>
<path class="st12" d="M256.4,63.4c0-0.1-0.1,0-0.1,0c0,0.4-0.1,0.8-0.3,1.1c-0.3,0.3-0.5,0.6-0.9,0.8c-1.7,1.5-3.1,3.3-4.2,5.3
	c-1.4,2.7-2.2,5.6-2.4,8.7c0,2,0.2,4.1,0.7,6.1c1,2.9,2.6,5.6,4.8,7.7c0.6,0.5,1.1,1,1.7,1.5c0.2,0,0.2-0.2,0.2-0.3
	c0.1-0.2,0.1-0.5,0.2-0.8l0.4-2.8L256.4,63.4z"/>
<path class="st10" d="M25.9,93.8c0.1-0.4,0.2-0.7,0.4-1c-0.2-0.1-0.4-0.3-0.5-0.4c-0.1-0.2-0.2-0.4-0.2-0.6
	c-0.2-0.7-0.3-1.5-0.4-2.2V89c-0.1,0.2-0.1,0.5-0.1,0.7c-0.1,0.8-0.2,1.6-0.3,2.4c0,0.4-0.1,0.7-0.3,1c0,0,0,0.1,0,0.1
	c0.3,0.9,0.4,1.9,0.4,2.9v0.3c0,0.4,0,0.3,0.3,0.5c0.2,0,0.3,0.1,0.5,0.2c0.1,0,0.1-0.1,0.1-0.2v-2.2c0-0.3,0-0.5,0.1-0.8L25.9,93.8
	z"/>
</svg>
